<svg width="60" height="60" viewBox="0 0 60 60" fill="#0B3D2E" xmlns="http://www.w3.org/2000/svg">
<g clip-path="url(#clip0_794_2508)">
<path d="M40 25H20V22.5H40V25ZM27.825 52.5L30.485 55H8.75C5.305 55 2.5 51.075 2.5 46.25C2.5 41.425 5.305 37.5 8.75 37.5H12.5V14.375C12.5 9.205 15.305 5 18.75 5H51.25C54.695 5 57.375 8.925 57.375 13.75C57.375 18.575 54.695 22.5 51.25 22.5H47.5V40.345L45 42.7925V14.375C44.9783 11.9886 45.5268 9.63157 46.6 7.5H18.75C16.98 7.5 15 10.44 15 14.375V37.5H41.425L39.65 39.565C38.1764 41.4748 37.4159 43.8392 37.5 46.25C37.5005 46.8286 37.5398 47.4066 37.6175 47.98L35.0375 45.5525C35.0993 43.6277 35.5607 41.7369 36.3925 40H8.75C6.7525 40 5 42.92 5 46.25C5 49.58 6.7525 52.5 8.75 52.5H27.825ZM47.5 20H51.25C53.2475 20 55.125 17.08 55.125 13.75C55.125 10.42 53.2475 7.5 51.25 7.5H49.5575C48.1591 9.51507 47.4384 11.923 47.5 14.375V20ZM20 32.5H40V30H20V32.5ZM40 15H20V17.5H40V15ZM56.2275 37.0475L38.7325 54.175L31.6525 47.5175L29.94 49.3375L38.765 57.64L57.9775 38.835L56.2275 37.0475Z" fill="#0B3D2E"/>
</g>
<defs>
<clipPath id="clip0_794_2508">
<rect width="60" height="60" fill="#0B3D2E"/>
</clipPath>
</defs>
</svg>
