<svg width="60" height="63" viewBox="0 0 60 63" fill="#d4a017" xmlns="http://www.w3.org/2000/svg">
<path d="M58.0124 43.6624C57.944 42.8882 57.8784 42.1585 57.9262 41.6072C58.349 36.7362 56.9756 32.3449 53.9549 28.9109C50.5284 25.0147 45.1265 22.6883 39.5062 22.6883C31.6799 22.6883 25.1203 26.9265 21.9581 34.0261C21.9506 34.0445 21.9412 34.0629 21.9346 34.0813C21.2081 31.3168 20.4749 29.3983 19.8881 27.8606C18.8962 25.2599 18.3637 23.8655 18.7903 20.8075C19.5644 20.7205 20.2904 20.3764 20.8593 19.8269C20.9578 19.8337 21.0599 19.8386 21.1631 19.8386C22.2271 19.8386 23.1496 19.4219 23.8162 18.6797L23.8987 18.6806C25.2234 18.6806 26.3512 18.0886 27.1021 17.0441C28.934 16.8852 30.1996 15.7437 30.4499 13.9851C30.7874 11.6247 29.9887 5.01831 28.2628 2.93892C27.5784 2.1124 26.8228 1.93799 26.3109 1.93799C23.3906 1.93799 18.8231 2.63467 14.9456 3.67049C7.8787 5.55802 6.77432 7.46397 6.59901 8.9145C5.88182 14.8998 4.8187 20.2387 3.87932 24.9498C2.54807 31.624 1.49713 36.8961 2.00526 41.0413C2.20307 42.6585 2.59776 44.0461 2.97838 45.3861C3.45463 47.0586 3.94495 48.7882 4.11088 51.1534C4.3387 54.4411 7.7737 56.3267 13.5356 56.3267C15.794 56.3267 18.0974 56.0224 19.9874 55.4808C22.3049 56.628 29.9521 60.0756 38.1196 60.0756C40.9284 60.0756 43.5449 59.6609 45.8999 58.8431C57.9496 54.6513 58.4906 49.0449 58.0124 43.6624ZM3.8662 40.7962C3.05432 34.1753 6.74151 23.5022 8.46088 9.15577C8.75245 6.72853 19.4418 4.18791 25.3218 3.9137C25.0828 4.11233 24.9112 4.37298 24.8887 4.65011C25.5937 4.31969 26.6465 4.21311 27.1631 5.30222C27.1903 5.12005 27.2015 4.95824 27.2015 4.80708C27.4715 5.35357 27.7181 6.0987 27.9262 6.94751C28.1878 8.1684 28.334 9.4203 28.3368 10.677C28.3387 11.5501 28.5224 14.6624 27.1321 14.2573C26.2753 14.0074 26.2537 13.1905 26.009 12.3495C25.6321 11.0346 24.9684 9.51913 25.049 8.12189C24.7218 9.49297 25.1109 11.1383 25.2553 12.5248C25.3378 13.332 25.8778 15.5131 24.9215 15.8106C24.3928 15.9782 23.7796 15.5935 23.3418 15.3116C23.1749 15.203 23.0503 14.4095 22.9893 14.1866C22.6124 12.8243 21.9374 11.2574 22.0237 9.82629C21.6937 11.1169 22.0153 12.6721 22.1203 13.9948C22.1849 14.8145 22.5853 16.5916 21.6909 17.0043C20.6784 17.5518 20.5228 16.2243 20.3353 15.5286C19.9874 14.237 19.4221 12.8243 19.4371 11.4696C19.0837 13.1198 19.499 15.0519 19.5674 16.7418C19.604 17.5809 17.9024 18.3386 17.2678 17.8115C16.2731 16.985 16.1053 15.05 15.9928 13.799C16.2909 14.2196 16.7184 14.7631 17.2612 14.7079C16.7999 14.1643 16.604 13.2322 16.2956 12.5714C16.0124 12.0287 15.4378 10.7371 14.7618 10.7158C14.8659 10.9474 15.4359 12.5433 15.3478 12.7119C15.0731 13.2399 14.8059 13.7767 14.5003 14.2825C14.2406 14.7079 13.4868 16.0635 12.8784 15.6536C12.2212 15.2137 11.8087 13.2438 11.8087 13.2438C11.8087 13.2438 11.8331 15.7001 12.6824 16.2689C13.4868 16.8096 14.4037 15.9569 14.9362 15.3484C15.0421 16.516 15.3478 17.8851 16.0312 18.7882C14.0231 27.9923 17.7196 27.9003 20.2115 40.2041C20.2115 40.2041 21.854 37.7013 23.2903 34.4776C26.4243 27.441 32.9615 24.3055 39.2634 24.3055C45.5128 24.3055 52.2046 27.6077 54.6365 33.3168C55.4399 35.2024 55.6396 37.4562 55.4221 39.9387C55.0668 43.9821 58.9274 50.5604 44.5265 55.5031C33.0993 59.4244 19.0443 51.9053 19.0443 51.9053C15.1893 53.2076 6.17432 53.7764 5.98401 51.0168C5.66995 46.4966 4.28151 44.1953 3.8662 40.7962Z" fill="#d4a017"/>
<path d="M32.1046 51.9073C34.6143 52.8588 37.3415 53.1175 39.9721 52.7939C42.6046 52.4644 45.1809 51.5759 47.4253 50.0779C48.539 49.324 49.5749 48.4171 50.4084 47.3289C51.2231 46.2369 51.8831 44.9753 52.0359 43.6372C50.4159 45.6856 48.3553 46.8135 46.2318 47.7097C44.0971 48.5818 41.8518 49.1254 39.5887 49.4054C37.3237 49.6758 35.0371 49.6787 32.7721 49.3153C30.409 48.9351 28.1311 48.1199 26.0465 46.9084C27.3253 49.2359 29.6128 50.9577 32.1046 51.9073Z" fill="#d4a017"/>
<path d="M23.9681 6.63729C24.3656 3.97362 21.7819 4.85053 21.6919 5.98615C22.3969 5.65477 23.4516 5.54915 23.9681 6.63729Z" fill="#d4a017"/>
<path d="M21.4134 8.11029C21.8118 5.44565 19.229 6.32063 19.139 7.46012C19.844 7.12583 20.8978 7.02118 21.4134 8.11029Z" fill="#d4a017"/>
<path d="M18.4631 9.64803C18.8615 6.98436 16.2787 7.8603 16.1887 8.99786C16.8947 8.66357 17.9465 8.55989 18.4631 9.64803Z" fill="#d4a017"/>
</svg>
