<svg width="60" height="60" viewBox="0 0 60 60" fill="#d4a017" xmlns="http://www.w3.org/2000/svg">
<path d="M9.6774 47.4263C8.07675 47.4263 6.77417 48.7289 6.77417 50.3295C6.77417 51.9301 8.07675 53.2327 9.6774 53.2327C11.278 53.2327 12.5806 51.9301 12.5806 50.3295C12.5806 48.7289 11.278 47.4263 9.6774 47.4263ZM9.6774 51.2972C9.1432 51.2972 8.70965 50.8637 8.70965 50.3295C8.70965 49.7953 9.1432 49.3618 9.6774 49.3618C10.2116 49.3618 10.6451 49.7953 10.6451 50.3295C10.6451 50.8637 10.2116 51.2972 9.6774 51.2972Z" fill="#d4a017"/>
<path d="M53.2258 16.4585V9.68426H55.1613V7.74878H46.4516H39.6775V9.68426H41.6129V16.4585H34.8387V24.2004H37.742V60.0068H39.6775V24.2004H41.6129V48.3939C41.6129 51.5962 44.2171 54.2004 47.4194 54.2004C50.6216 54.2004 53.2258 51.5962 53.2258 48.3939V24.2004H55.1613V60.0068H57.0968V24.2004H60V16.4585H53.2258ZM43.5484 9.68426H51.2904V16.4585H43.5484V9.68426ZM51.2904 48.3939C51.2904 50.5288 49.5542 52.2649 47.4194 52.2649C45.9552 52.2649 44.6933 51.4385 44.0362 50.2365C46.5078 49.7778 48.3871 47.6091 48.3871 45.0068C48.3871 42.2362 46.2571 39.9543 43.5484 39.7085V30.9746H46.022C45.6891 31.5465 45.4839 32.2017 45.4839 32.9101C45.4839 35.0449 47.22 36.781 49.3549 36.781C50.0633 36.781 50.7184 36.5759 51.2904 36.243V48.3939ZM43.5484 48.3446V41.6691C45.1858 41.9062 46.4516 43.3056 46.4516 45.0068C46.4516 46.7081 45.1858 48.1075 43.5484 48.3446ZM49.3549 34.8456C48.2875 34.8456 47.4194 33.9775 47.4194 32.9101C47.4194 31.8426 48.2875 30.9746 49.3549 30.9746C50.4223 30.9746 51.2904 31.8426 51.2904 32.9101C51.2904 33.9775 50.4223 34.8456 49.3549 34.8456ZM51.2904 29.0391H43.5484V24.2004H51.2904V29.0391ZM58.0646 22.2649H36.7742V18.3939H58.0646V22.2649Z" fill="#d4a017"/>
<path d="M49.3548 4.84561C49.3548 3.24496 48.0522 1.94238 46.4516 1.94238C44.8509 1.94238 43.5483 3.24496 43.5483 4.84561C43.5483 6.44625 44.8509 7.74883 46.4516 7.74883C48.0522 7.74883 49.3548 6.44625 49.3548 4.84561ZM46.4516 5.81335C45.9174 5.81335 45.4838 5.3798 45.4838 4.84561C45.4838 4.31141 45.9174 3.87787 46.4516 3.87787C46.9858 3.87787 47.4193 4.31141 47.4193 4.84561C47.4193 5.3798 46.9858 5.81335 46.4516 5.81335Z" fill="#d4a017"/>
<path d="M54.1936 4.84555C56.8616 4.84555 59.0323 2.6749 59.0323 0.00683594H57.0968C57.0968 1.60748 55.7942 2.91006 54.1936 2.91006C52.5929 2.91006 51.2903 1.60748 51.2903 0.00683594H49.3549C49.3549 2.6749 51.5255 4.84555 54.1936 4.84555Z" fill="#d4a017"/>
<path d="M21.2903 27.8468V4.84555H23.2258V2.91006H21.2903H17.4194V0.00683594H15.4839V2.91006H11.6129H9.67742V4.84555H11.6129V27.8468C4.73806 29.9565 0 36.3117 0 43.5552C0 52.6268 7.38 60.0068 16.4516 60.0068C25.5232 60.0068 32.9032 52.6268 32.9032 43.5552C32.9032 36.3117 28.1652 29.9565 21.2903 27.8468ZM30.9677 43.5552C30.9677 51.5594 24.4558 58.0714 16.4516 58.0714C8.44742 58.0714 1.93548 51.5594 1.93548 43.5552C1.93548 42.9001 1.99161 42.2555 2.07677 41.6197H17.5171C17.9671 43.8252 19.921 45.4907 22.2581 45.4907C24.5952 45.4907 26.549 43.8252 26.999 41.6197H30.8265C30.9116 42.2555 30.9677 42.9001 30.9677 43.5552ZM19.5329 41.6197H24.9832C24.5826 42.7433 23.5181 43.5552 22.2581 43.5552C20.9981 43.5552 19.9335 42.7433 19.5329 41.6197ZM2.46968 39.6843C3.82935 34.7826 7.70613 30.8352 12.8226 29.5162L13.5484 29.3284V4.84555H19.3548V29.3284L20.0806 29.5162C25.1971 30.8352 29.0739 34.7826 30.4335 39.6843H2.46968Z" fill="#d4a017"/>
</svg>
